<mxfile host="drawio-plugin" modified="2023-05-01T19:05:30.384Z" agent="5.0 (Windows NT 6.2; Win64; x64) AppleWebKit/537.36 (KHTML, like Gecko) Chrome/104.0.5112.102 Safari/537.36" etag="ZPB7n72uXc1NuXwy8kvc" version="20.5.3" type="embed"><diagram id="23iRSUPoRavnBvh4doch" name="Page-1"><mxGraphModel dx="1561" dy="801" grid="1" gridSize="10" guides="1" tooltips="1" connect="1" arrows="1" fold="1" page="1" pageScale="1" pageWidth="827" pageHeight="1169" math="0" shadow="0"><root><mxCell id="0"/><mxCell id="1" parent="0"/><mxCell id="44" value="&lt;b&gt;На фронте:&lt;/b&gt;&lt;br&gt; выпадающий список возможных сайтов или возможность добавить новый. Поле названия нового парсинга. Поле описания нового парсинга. Таблица с возможностью добавления строк. Каждая строка - один шаг парсинга. Уникальный идентификатор таблицы для сохранения результатов из всплывающего списка.&lt;br&gt;&lt;font style=&quot;font-weight: bold; font-size: 13px;&quot;&gt;&lt;br&gt;Бэк:&lt;/font&gt;&lt;br&gt;&lt;font style=&quot;font-weight: bold; font-size: 12px;&quot;&gt;получение списка доступных сайтов:&lt;/font&gt;&lt;br&gt;&lt;font style=&quot;font-size: 12px;&quot;&gt;SiteController#getAllSites() -&lt;br&gt;SiteService#getAllSites()&amp;nbsp;&lt;/font&gt;&lt;br&gt;&lt;br&gt;&lt;font style=&quot;font-weight: bold; font-size: 12px;&quot;&gt;сохранение&amp;nbsp;&lt;/font&gt;&lt;font style=&quot;font-size: 12px;&quot;&gt;&lt;b&gt;нового сайта:&lt;/b&gt;&lt;br&gt;SiteContoller#newSite(site:json) -&lt;br&gt;SiteService#createSite(site:json) &lt;b&gt;&lt;br&gt;&lt;br&gt;получение списка результирующих таблиц:&lt;br&gt;&amp;nbsp;&lt;/b&gt;ParsingResultsController#getResultsTables() -&lt;br&gt;ParsingResultsService#getAllResultsTables()&lt;br&gt;&lt;br&gt;&lt;b&gt;&amp;nbsp;сохранение нового папрсинга:&lt;/b&gt;&lt;br&gt;OptionController#newOption(site_id, result_table_id, option:json) -&lt;br&gt;OptionService#createNewOption(site_id, result_table_id, option:json) -&lt;br&gt;OptionRepository#saveOption(option:json) -&lt;br&gt;&amp;nbsp;OptionService#createSiteOption(site_id, result_table_id, option_id) -&lt;br&gt;OptionRepository#saveSiteOption(site_option:json)&lt;/font&gt;" style="rounded=0;whiteSpace=wrap;html=1;" vertex="1" parent="1"><mxGeometry y="40" width="380" height="400" as="geometry"/></mxCell><mxCell id="45" value="Creator" style="rounded=0;whiteSpace=wrap;html=1;fontSize=14;fontStyle=1;fillColor=none;" vertex="1" parent="1"><mxGeometry width="80" height="40" as="geometry"/></mxCell><mxCell id="46" value="Version 1" style="text;html=1;strokeColor=none;fillColor=none;align=center;verticalAlign=middle;whiteSpace=wrap;rounded=0;" vertex="1" parent="1"><mxGeometry x="1170" width="107" height="40" as="geometry"/></mxCell><mxCell id="47" style="edgeStyle=orthogonalEdgeStyle;rounded=0;orthogonalLoop=1;jettySize=auto;html=1;exitX=1;exitY=0.5;exitDx=0;exitDy=0;entryX=0;entryY=0.5;entryDx=0;entryDy=0;fontSize=12;" edge="1" parent="1" source="48" target="74"><mxGeometry relative="1" as="geometry"/></mxCell><mxCell id="48" value="Сохранение нового парсинга" style="ellipse;whiteSpace=wrap;html=1;fontSize=12;" vertex="1" parent="1"><mxGeometry x="400" y="400" width="130" height="80" as="geometry"/></mxCell><mxCell id="49" style="edgeStyle=orthogonalEdgeStyle;rounded=0;orthogonalLoop=1;jettySize=auto;html=1;exitX=1;exitY=0.5;exitDx=0;exitDy=0;entryX=0;entryY=0.5;entryDx=0;entryDy=0;fontSize=12;" edge="1" parent="1" source="50" target="68"><mxGeometry relative="1" as="geometry"/></mxCell><mxCell id="50" value="Получение списка результирующих таблиц" style="ellipse;whiteSpace=wrap;html=1;fontSize=12;" vertex="1" parent="1"><mxGeometry x="400" y="260" width="130" height="80" as="geometry"/></mxCell><mxCell id="51" style="edgeStyle=orthogonalEdgeStyle;rounded=0;orthogonalLoop=1;jettySize=auto;html=1;exitX=1;exitY=0.5;exitDx=0;exitDy=0;entryX=0;entryY=0.5;entryDx=0;entryDy=0;fontSize=12;" edge="1" parent="1" source="52" target="59"><mxGeometry relative="1" as="geometry"/></mxCell><mxCell id="52" value="Сохранение нового сайта" style="ellipse;whiteSpace=wrap;html=1;fontSize=12;" vertex="1" parent="1"><mxGeometry x="400" y="140" width="130" height="80" as="geometry"/></mxCell><mxCell id="53" style="edgeStyle=orthogonalEdgeStyle;rounded=0;orthogonalLoop=1;jettySize=auto;html=1;exitX=1;exitY=0.5;exitDx=0;exitDy=0;entryX=0;entryY=0.5;entryDx=0;entryDy=0;fontSize=12;" edge="1" parent="1" source="54" target="57"><mxGeometry relative="1" as="geometry"/></mxCell><mxCell id="54" value="Получение списка сайтов" style="ellipse;whiteSpace=wrap;html=1;fontSize=12;" vertex="1" parent="1"><mxGeometry x="400" y="60" width="130" height="80" as="geometry"/></mxCell><mxCell id="55" value="SiteController" style="rounded=0;whiteSpace=wrap;html=1;fontSize=13;fontStyle=1;verticalAlign=top;fillColor=none;dashed=1;dashPattern=12 12;" vertex="1" parent="1"><mxGeometry x="560" y="40" width="200" height="200" as="geometry"/></mxCell><mxCell id="56" style="edgeStyle=orthogonalEdgeStyle;rounded=0;orthogonalLoop=1;jettySize=auto;html=1;exitX=1;exitY=0.5;exitDx=0;exitDy=0;entryX=0;entryY=0.5;entryDx=0;entryDy=0;fontSize=12;" edge="1" parent="1" source="57" target="62"><mxGeometry relative="1" as="geometry"/></mxCell><mxCell id="57" value="getAllSites(GET)" style="rounded=0;whiteSpace=wrap;html=1;fontSize=12;" vertex="1" parent="1"><mxGeometry x="600" y="80" width="120" height="40" as="geometry"/></mxCell><mxCell id="58" style="edgeStyle=orthogonalEdgeStyle;rounded=0;orthogonalLoop=1;jettySize=auto;html=1;exitX=1;exitY=0.5;exitDx=0;exitDy=0;entryX=0;entryY=0.5;entryDx=0;entryDy=0;fontSize=12;" edge="1" parent="1" source="59" target="64"><mxGeometry relative="1" as="geometry"/></mxCell><mxCell id="59" value="newSite(POST) *requestBody (site:json)" style="rounded=0;whiteSpace=wrap;html=1;fontSize=12;" vertex="1" parent="1"><mxGeometry x="590" y="160" width="140" height="40" as="geometry"/></mxCell><mxCell id="60" value="SiteService" style="rounded=0;whiteSpace=wrap;html=1;fontSize=13;fontStyle=1;verticalAlign=top;fillColor=none;dashed=1;dashPattern=12 12;" vertex="1" parent="1"><mxGeometry x="800" y="40" width="200" height="200" as="geometry"/></mxCell><mxCell id="61" style="edgeStyle=orthogonalEdgeStyle;rounded=0;orthogonalLoop=1;jettySize=auto;html=1;exitX=1;exitY=0.5;exitDx=0;exitDy=0;entryX=0;entryY=0;entryDx=0;entryDy=15;entryPerimeter=0;fontSize=12;dashed=1;" edge="1" parent="1" source="62" target="65"><mxGeometry relative="1" as="geometry"><Array as="points"><mxPoint x="1060" y="100"/><mxPoint x="1060" y="175"/></Array></mxGeometry></mxCell><mxCell id="62" value="getAllSites()" style="rounded=0;whiteSpace=wrap;html=1;fontSize=12;" vertex="1" parent="1"><mxGeometry x="840" y="80" width="120" height="40" as="geometry"/></mxCell><mxCell id="63" style="edgeStyle=orthogonalEdgeStyle;rounded=0;orthogonalLoop=1;jettySize=auto;html=1;exitX=1;exitY=0.5;exitDx=0;exitDy=0;entryX=0;entryY=0;entryDx=0;entryDy=37.5;entryPerimeter=0;dashed=1;fontSize=12;" edge="1" parent="1" source="64" target="65"><mxGeometry relative="1" as="geometry"><Array as="points"><mxPoint x="1040" y="180"/><mxPoint x="1040" y="198"/></Array></mxGeometry></mxCell><mxCell id="64" value="createSite(site:json)" style="rounded=0;whiteSpace=wrap;html=1;fontSize=12;" vertex="1" parent="1"><mxGeometry x="830" y="160" width="140" height="40" as="geometry"/></mxCell><mxCell id="65" value="Parsers DB (PostgreSQL)" style="shape=cylinder3;whiteSpace=wrap;html=1;boundedLbl=1;backgroundOutline=1;size=15;" vertex="1" parent="1"><mxGeometry x="1120" y="160" width="100" height="120" as="geometry"/></mxCell><mxCell id="66" value="ParsingResultsController" style="rounded=0;whiteSpace=wrap;html=1;fontSize=13;fontStyle=1;verticalAlign=top;fillColor=none;dashed=1;dashPattern=12 12;" vertex="1" parent="1"><mxGeometry x="560" y="240" width="200" height="120" as="geometry"/></mxCell><mxCell id="67" style="edgeStyle=orthogonalEdgeStyle;rounded=0;orthogonalLoop=1;jettySize=auto;html=1;exitX=1;exitY=0.5;exitDx=0;exitDy=0;entryX=0;entryY=0.5;entryDx=0;entryDy=0;fontSize=12;" edge="1" parent="1" source="68" target="71"><mxGeometry relative="1" as="geometry"/></mxCell><mxCell id="68" value="getResultsTables(GET)" style="rounded=0;whiteSpace=wrap;html=1;fontSize=12;" vertex="1" parent="1"><mxGeometry x="590" y="280" width="140" height="40" as="geometry"/></mxCell><mxCell id="69" value="ParsingResultsService" style="rounded=0;whiteSpace=wrap;html=1;fontSize=13;fontStyle=1;verticalAlign=top;fillColor=none;dashed=1;dashPattern=12 12;" vertex="1" parent="1"><mxGeometry x="800" y="240" width="200" height="120" as="geometry"/></mxCell><mxCell id="70" style="edgeStyle=orthogonalEdgeStyle;rounded=0;orthogonalLoop=1;jettySize=auto;html=1;exitX=1;exitY=0.5;exitDx=0;exitDy=0;entryX=0;entryY=0.5;entryDx=0;entryDy=0;entryPerimeter=0;fontSize=12;dashed=1;" edge="1" parent="1" source="71" target="65"><mxGeometry relative="1" as="geometry"><Array as="points"><mxPoint x="1060" y="300"/><mxPoint x="1060" y="220"/></Array></mxGeometry></mxCell><mxCell id="71" value="getAllResultsTables()" style="rounded=0;whiteSpace=wrap;html=1;fontSize=12;" vertex="1" parent="1"><mxGeometry x="830" y="280" width="140" height="40" as="geometry"/></mxCell><mxCell id="72" value="OptionController" style="rounded=0;whiteSpace=wrap;html=1;fontSize=13;fontStyle=1;verticalAlign=top;fillColor=none;dashed=1;dashPattern=12 12;" vertex="1" parent="1"><mxGeometry x="560" y="360" width="200" height="160" as="geometry"/></mxCell><mxCell id="73" style="edgeStyle=orthogonalEdgeStyle;rounded=0;orthogonalLoop=1;jettySize=auto;html=1;exitX=1;exitY=0.5;exitDx=0;exitDy=0;entryX=0;entryY=0.5;entryDx=0;entryDy=0;fontSize=12;" edge="1" parent="1" source="74" target="78"><mxGeometry relative="1" as="geometry"/></mxCell><mxCell id="74" value="newOption(POST)&lt;br&gt; *site_id &lt;br&gt;*result_table_id &lt;br&gt;*requestBody (option:json)" style="rounded=0;whiteSpace=wrap;html=1;fontSize=12;" vertex="1" parent="1"><mxGeometry x="580" y="400" width="160" height="80" as="geometry"/></mxCell><mxCell id="75" value="OptionService" style="rounded=0;whiteSpace=wrap;html=1;fontSize=13;fontStyle=1;verticalAlign=top;fillColor=none;dashed=1;dashPattern=12 12;" vertex="1" parent="1"><mxGeometry x="800" y="360" width="200" height="200" as="geometry"/></mxCell><mxCell id="76" style="edgeStyle=orthogonalEdgeStyle;rounded=0;orthogonalLoop=1;jettySize=auto;html=1;exitX=1;exitY=0.5;exitDx=0;exitDy=0;entryX=0;entryY=0.5;entryDx=0;entryDy=0;fontSize=12;dashed=1;" edge="1" parent="1" source="78" target="81"><mxGeometry relative="1" as="geometry"/></mxCell><mxCell id="77" style="edgeStyle=orthogonalEdgeStyle;rounded=0;orthogonalLoop=1;jettySize=auto;html=1;exitX=0.5;exitY=1;exitDx=0;exitDy=0;entryX=0.5;entryY=0;entryDx=0;entryDy=0;fontSize=12;" edge="1" parent="1" source="78" target="83"><mxGeometry relative="1" as="geometry"/></mxCell><mxCell id="78" value="createNewOption(site_id, result_table_id, option:json)" style="rounded=0;whiteSpace=wrap;html=1;fontSize=12;" vertex="1" parent="1"><mxGeometry x="812.5" y="400" width="175" height="40" as="geometry"/></mxCell><mxCell id="79" value="OptionRepository" style="rounded=0;whiteSpace=wrap;html=1;fontSize=13;fontStyle=1;verticalAlign=top;fillColor=none;dashed=1;dashPattern=12 12;" vertex="1" parent="1"><mxGeometry x="1041" y="360" width="200" height="200" as="geometry"/></mxCell><mxCell id="80" style="edgeStyle=orthogonalEdgeStyle;rounded=0;orthogonalLoop=1;jettySize=auto;html=1;exitX=1;exitY=0.5;exitDx=0;exitDy=0;entryX=1;entryY=0;entryDx=0;entryDy=82.5;entryPerimeter=0;dashed=1;fontSize=12;" edge="1" parent="1" source="81" target="65"><mxGeometry relative="1" as="geometry"/></mxCell><mxCell id="81" value="saveOption(option:json)" style="rounded=0;whiteSpace=wrap;html=1;fontSize=12;" vertex="1" parent="1"><mxGeometry x="1056" y="400" width="170" height="40" as="geometry"/></mxCell><mxCell id="82" style="edgeStyle=orthogonalEdgeStyle;rounded=0;orthogonalLoop=1;jettySize=auto;html=1;exitX=1;exitY=0.5;exitDx=0;exitDy=0;entryX=0;entryY=0.5;entryDx=0;entryDy=0;dashed=1;fontSize=12;" edge="1" parent="1" source="83" target="85"><mxGeometry relative="1" as="geometry"/></mxCell><mxCell id="83" value="createSiteOperation(site_id, result_table_id, operation_id)" style="rounded=0;whiteSpace=wrap;html=1;fontSize=12;" vertex="1" parent="1"><mxGeometry x="812.5" y="480" width="175" height="40" as="geometry"/></mxCell><mxCell id="84" style="edgeStyle=orthogonalEdgeStyle;rounded=0;orthogonalLoop=1;jettySize=auto;html=1;exitX=1;exitY=0.5;exitDx=0;exitDy=0;entryX=1;entryY=0;entryDx=0;entryDy=37.5;entryPerimeter=0;dashed=1;fontSize=12;" edge="1" parent="1" source="85" target="65"><mxGeometry relative="1" as="geometry"><Array as="points"><mxPoint x="1260" y="500"/><mxPoint x="1260" y="198"/></Array></mxGeometry></mxCell><mxCell id="85" value="saveSiteOption(site_option:json)" style="rounded=0;whiteSpace=wrap;html=1;fontSize=12;" vertex="1" parent="1"><mxGeometry x="1049" y="480" width="184" height="40" as="geometry"/></mxCell></root></mxGraphModel></diagram></mxfile>